<svg width="14" height="14" viewBox="0 0 14 14" fill="none" xmlns="http://www.w3.org/2000/svg">
<g clip-path="url(#clip0)">
<path d="M5.95407e-05 12.3959L6.00124e-05 1.60463C6.00511e-05 0.719719 0.719308 0.00047285 1.60422 0.000472889L4.22914 0.000473003C4.47063 0.000473014 4.66663 0.196466 4.66663 0.437959C4.66663 0.679453 4.47063 0.875446 4.22914 0.875446L1.60422 0.875446C1.2023 0.875446 0.875034 1.20271 0.875034 1.60463L0.875034 12.3959C0.875034 12.7978 1.20229 13.1251 1.60421 13.1251L4.22914 13.1251C4.47063 13.1251 4.66663 13.3211 4.66663 13.5625C4.66663 13.804 4.47063 14 4.22914 14L1.60421 14C0.719307 14 5.9502e-05 13.2808 5.95407e-05 12.3959V12.3959Z" fill="white"/>
<path d="M3.20812 7.0002C3.20812 6.75871 3.40411 6.56271 3.64561 6.56271L12.687 6.56271C12.9285 6.56271 13.1245 6.75871 13.1245 7.0002C13.1245 7.2417 12.9285 7.43769 12.687 7.43769L3.64561 7.43769C3.40411 7.43769 3.20812 7.2417 3.20812 7.0002Z" fill="white"/>
<path d="M9.91637 9.33344C9.91637 9.2215 9.95888 9.10946 10.0447 9.02433L12.0681 7.00021L10.0447 4.97608C9.87376 4.80519 9.87376 4.52813 10.0447 4.35723C10.2155 4.18634 10.4926 4.18634 10.6636 4.35723L12.9968 6.69046C13.1677 6.86136 13.1677 7.13842 12.9968 7.30942L10.6636 9.64265C10.4926 9.81354 10.2155 9.81354 10.0447 9.64265C9.95888 9.55752 9.91637 9.44548 9.91637 9.33344V9.33344Z" fill="white"/>
</g>
<defs>
<clipPath id="clip0">
<rect width="14" height="14" fill="white" transform="translate(14) rotate(90)"/>
</clipPath>
</defs>
</svg>
