<svg width="16" height="16" viewBox="0 0 16 16" fill="none" xmlns="http://www.w3.org/2000/svg">
<path d="M7.05542 0.0192413C3.1651 0.0192413 0 3.17569 0 7.05541C0 10.9351 3.16513 14.0916 7.05542 14.0916C10.9457 14.0916 14.1109 10.9351 14.1109 7.05541C14.1109 3.17569 10.9457 0.0192413 7.05542 0.0192413ZM7.05542 12.9349C3.80279 12.9349 1.15663 10.2972 1.15663 7.05538C1.15663 3.81334 3.80279 1.17584 7.05542 1.17584C10.3081 1.17584 12.9542 3.81334 12.9542 7.05538C12.9542 10.2972 10.3081 12.9349 7.05542 12.9349Z" fill="white"/>
<path d="M15.8297 14.9924L12.0321 11.2141C11.8056 10.9889 11.4395 10.9899 11.2141 11.2162C10.989 11.4427 10.99 11.8088 11.2163 12.0341L15.0139 15.8125C15.1268 15.9247 15.2741 15.9807 15.4218 15.9807C15.5704 15.9807 15.7188 15.9239 15.8318 15.8103C16.057 15.5838 16.056 15.2177 15.8297 14.9924Z" fill="white"/>
</svg>
